#!OML:ASF F:\VICON\USERDATA\INSTALL\rory3\rory3.ASF
:FULLY-SPECIFIED
:DEGREES
1785
root 0.58304 10.1372 -6.78013 -21.3587 -24.9455 0.462781
lowerback 38.567 0.0864442 -6.69801
upperback 15.12 -3.15474 -4.45129
thorax -1.96227 -1.93593 -0.164614
lowerneck -10.7703 -0.685852 -14.2709
upperneck -14.1108 0.506014 4.72034
head -2.59349 0.773581 3.79329
rclavicle 5.1684e-014 -6.36111e-015
rhumerus -40.286 42.5391 -99.2736
rradius 57.9299
rwrist -30.3556
rhand -11.7019 6.57704
rfingers 7.12502
rthumb 14.3442 -22.9074
lclavicle 5.1684e-014 -6.36111e-015
lhumerus 59.7311 -13.3173 44.4425
lradius 133.476
lwrist 50.3731
lhand -0.47412 26.6593
lfingers 7.12502
lthumb 25.1362 55.0245
rfemur -76.4151 -15.0186 11.3028
rtibia 93.069
rfoot 7.44242 2.04757
rtoes 3.61856
lfemur -108.41 46.7804 -28.9611
ltibia 144.07
lfoot 4.35265 -13.0724
ltoes -1.81301
1786
root 0.583072 10.1378 -6.78047 -21.3208 -24.9553 0.400219
lowerback 38.5828 0.101188 -6.69076
upperback 15.1053 -3.13657 -4.45726
thorax -1.98475 -1.92532 -0.179895
lowerneck -10.7871 -0.738505 -14.3694
upperneck -13.9811 0.454294 4.7835
head -2.54709 0.747464 3.82717
rclavicle -1.66979e-014 -2.70347e-014
rhumerus -40.4567 42.8392 -99.4554
rradius 58.086
rwrist -30.43
rhand -11.8307 7.08093
rfingers 7.12502
rthumb 14.2201 -22.4123
lclavicle -1.66979e-014 -2.70347e-014
lhumerus 59.8404 -13.3729 44.4068
lradius 133.398
lwrist 48.8699
lhand -1.08148 26.1597
lfingers 7.12502
lthumb 24.5541 54.6053
rfemur -76.4165 -15.0229 11.3734
rtibia 93.0553
rfoot 7.43848 2.01562
rtoes 3.59836
lfemur -108.478 46.7724 -28.9244
ltibia 144.095
lfoot 4.39 -13.0631
ltoes -1.56464
1787
root 0.58267 10.1374 -6.78045 -21.3227 -24.9789 0.356226
lowerback 38.5863 0.112541 -6.65903
upperback 15.1064 -3.1173 -4.52929
thorax -1.99193 -1.91091 -0.27793
lowerneck -10.8369 -0.792842 -14.2458
upperneck -13.7656 0.380981 4.7729
head -2.4657 0.699038 3.8009
rclavicle 2.54444e-014 3.49861e-014
rhumerus -40.6156 43.0965 -99.785
rradius 58.0891
rwrist -30.2692
rhand -12.266 7.199
rfingers 7.12502
rthumb 13.8007 -22.3232
lclavicle 2.54444e-014 3.49861e-014
lhumerus 59.9885 -13.4218 44.3456
lradius 133.279
lwrist 47.5805
lhand -1.69637 25.9403
lfingers 7.12502
lthumb 23.9646 54.4646
rfemur -76.3926 -15.0109 11.423
rtibia 93.0527
rfoot 7.41014 1.98357
rtoes 3.54315
lfemur -108.462 46.8213 -28.85
ltibia 144.093
lfoot 4.43365 -13.0611
ltoes -1.09608
1788
root 0.582425 10.1375 -6.78061 -21.3533 -24.9786 0.346239
lowerback 38.6277 0.146166 -6.68308
upperback 15.0756 -3.09342 -4.58089
thorax -2.04083 -1.89546 -0.326429
lowerneck -10.8589 -0.832209 -14.145
upperneck -13.4672 0.330307 4.79467
head -2.3654 0.660151 3.78775
rclavicle -8.34896e-014 1.59028e-015
rhumerus -40.8605 43.3611 -100.172
rradius 58.0691
rwrist -29.9411
rhand -12.8818 6.71637
rfingers 7.12502
rthumb 13.2072 -22.8453
lclavicle -8.34896e-014 1.59028e-015
lhumerus 60.0847 -13.4915 44.3448
lradius 133.145
lwrist 46.4071
lhand -2.24921 25.8341
lfingers 7.12502
lthumb 23.4343 54.4271
rfemur -76.3478 -15.01 11.4203
rtibia 93.0548
rfoot 7.4039 1.97615
rtoes 3.58593
lfemur -108.354 46.7918 -28.7515
ltibia 144.068
lfoot 4.48194 -13.0664
ltoes -1.20506
1789
root 0.581498 10.1373 -6.7807 -21.3071 -24.9974 0.254535
lowerback 38.6844 0.182242 -6.66928
upperback 15.0194 -3.05156 -4.57698
thorax -2.12243 -1.87033 -0.340711
lowerneck -10.6687 -0.859599 -14.1732
upperneck -13.4522 0.27972 4.91367
head -2.38327 0.63224 3.82884
rclavicle -2.62396e-014 4.45278e-014
rhumerus -41.1186 43.62 -100.496
rradius 58.1296
rwrist -29.724
rhand -13.1596 6.73222
rfingers 7.12502
rthumb 12.9394 -22.8466
lclavicle -2.62396e-014 4.45278e-014
lhumerus 60.1475 -13.5849 44.3321
lradius 132.985
lwrist 45.1965
lhand -2.93546 25.3976
lfingers 7.12502
lthumb 22.7759 54.0731
rfemur -76.345 -14.9862 11.5101
rtibia 93.052
rfoot 7.40342 1.90558
rtoes 3.6993
lfemur -108.453 46.7751 -28.6776
ltibia 144.082
lfoot 4.61001 -13.1353
ltoes -1.63247
1790
root 0.581095 10.1367 -6.77927 -21.2658 -24.9496 0.219558
lowerback 38.7262 0.172423 -6.66434
upperback 14.9647 -3.06953 -4.6162
thorax -2.19825 -1.87265 -0.375887
lowerneck -10.204 -0.900182 -14.1898
upperneck -13.8 0.16065 4.99691
head -2.54673 0.577734 3.86039
rclavicle 6.67916e-014 -5.24792e-014
rhumerus -41.3959 43.9546 -100.871
rradius 58.2462
rwrist -29.4492
rhand -13.6151 6.98289
rfingers 7.12502
rthumb 12.5002 -22.6232
lclavicle 6.67916e-014 -5.24792e-014
lhumerus 60.1492 -13.683 44.2552
lradius 132.823
lwrist 43.8634
lhand -3.49121 24.78
lfingers 7.12502
lthumb 22.2425 53.5202
rfemur -76.372 -15.0403 11.5255
rtibia 93.0648
rfoot 7.38618 1.88049
rtoes 3.67101
lfemur -108.523 46.6719 -28.6876
ltibia 144.104
lfoot 4.6756 -13.1306
ltoes -1.93459
1791
root 0.581842 10.1356 -6.77738 -21.2497 -24.8319 0.245824
lowerback 38.6908 0.151932 -6.70309
upperback 14.9627 -3.1035 -4.63271
thorax -2.18677 -1.88956 -0.362591
lowerneck -9.82116 -0.975042 -14.2444
upperneck -14.1224 0.0007592 4.98306
head -2.68857 0.506271 3.8677
rclavicle 1.23246e-013 6.83819e-014
rhumerus -41.6401 44.3255 -101.154
rradius 58.3802
rwrist -28.911
rhand -14.4643 6.56877
rfingers 7.12502
rthumb 11.6814 -23.0856
lclavicle 1.23246e-013 6.83819e-014
lhumerus 60.1819 -13.7111 44.2672
lradius 132.706
lwrist 42.6912
lhand -3.96785 24.4
lfingers 7.12502
lthumb 21.7848 53.194
rfemur -76.402 -15.1783 11.4531
rtibia 93.0937
rfoot 7.39346 1.92849
rtoes 3.71558
lfemur -108.487 46.4222 -28.722
ltibia 144.107
lfoot 4.70098 -13.0277
ltoes -1.98837
